# xmcd CD database file
#
# Track frame offsets:
#	150
#	50673
#	69464
#
# Disc length: 1042 seconds
#
# Revision: 0
# Processed by: cddbd v1.4PL0 Copyright (c) Steve Scherf et al.
# Submitted via: CDex 1.40Release
#
DISCID=25041003
DTITLE=Jon Langford - Gravestone EP
DYEAR=1900
DGENRE=Country
TTITLE0=Nashville Radio/Death of Country Music
TTITLE1=Dollar Dress
TTITLE2=Return of the Golden Guitarist
EXTD=ID3G: 2
EXTT0=
EXTT1=
EXTT2=
PLAYORDER=
